<svg xmlns="http://www.w3.org/2000/svg" viewBox="0 0 468.89 468.89"><defs><style>.cls-1{fill:#fefefe;}.cls-2{fill:#ff7043;}</style></defs><title>Logo White</title><g id="Laag_2" data-name="Laag 2"><g id="Laag_1-2" data-name="Laag 1"><path class="cls-1" d="M468.89,468.89H0V0H468.89ZM30,438.89H438.89V30H30Z"/><path class="cls-2" d="M65.54,274.84V65.44h63c56.1,0,86.1,20.1,86.1,56.4,0,20.1-12.3,34.5-33.6,42.3v.9c27,6.9,42.6,25.8,42.6,50.1,0,39.9-33.3,59.7-92.1,59.7Zm66-123.3c21.6,0,33-8.7,33-25.8,0-15.9-11.4-24.9-31.8-24.9H115v50.7Zm41.7,59.1c0-20.4-11.1-28.5-38.4-28.5H115v53.1h21.3C161.85,235.24,173.25,227.44,173.25,210.64Z"/><path class="cls-2" d="M409,256.84c-15.6,13.5-45.3,23.4-73.8,23.4-60.9,0-95.1-39-95.1-110.1,0-67.5,38.4-110.1,99.9-110.1,22.8,0,46.5,8.7,63.3,22.8l-21.9,30.6c-11.4-9.9-25.2-15.3-38.4-15.3-32.7,0-51.3,26.1-51.3,72,0,48.6,15,71.7,45.3,71.7,8.7,0,18-1.8,25.2-5.4v-47.7h-26.4v-33.9H409Z"/><path class="cls-1" d="M77.52,357.16V307.4H89.91c10.44,0,17.07,4.9,17.07,12.6a10.8,10.8,0,0,1-8.42,10.95v.14c7.06,1.15,10.73,5.4,10.73,12.46,0,8.71-6.77,13.61-19.08,13.61Zm13.32-27.94c7.06,0,11.09-3.38,11.09-8.93s-4.39-8.64-11.88-8.64H82.49v17.57Zm13.32,14.4c0-7.63-3.82-10.51-13.25-10.51H82.49v19.8h7.63C99.63,352.91,104.16,349.81,104.16,343.62Z"/><path class="cls-1" d="M125.33,357.16h-5V307.4h5Z"/><path class="cls-1" d="M178.32,332.24c0,15.63-8.06,26-20.23,26s-20.31-10.37-20.31-26,8.06-26,20.31-26S178.32,316.69,178.32,332.24Zm-5.18,0c0-13.39-5.76-21.75-15-21.75S143,318.85,143,332.24,148.8,354,158.09,354,173.14,345.64,173.14,332.24Z"/><path class="cls-1" d="M184.44,352l2.38-3.6A19.08,19.08,0,0,0,200,353.92c7.49,0,11.81-3.74,12-9.87.07-7.34-5.47-9.07-12.38-11.38-6.62-2.23-13.54-4.82-13.54-13.32,0-7.7,6-13.1,15-13.1,5.26,0,10.87,1.94,14,4.82l-2.38,3.6a18.19,18.19,0,0,0-11.31-4.18c-6.34,0-10.3,3.38-10.3,8.5,0,5.83,4.75,7.56,11.16,9.72,7.06,2.3,14.83,4.9,14.83,15,0,8.86-6.55,14.47-16.85,14.47C194.23,358.24,187.9,355.72,184.44,352Z"/><path class="cls-1" d="M258.53,353.77c-3.17,2.81-8.21,4.46-13,4.46-12.1,0-20.16-10.37-20.16-26s8-26,19.95-26a19.71,19.71,0,0,1,12.46,4.25l-2.3,3.6a15.72,15.72,0,0,0-9.79-3.6c-9.29,0-15,8.35-15,21.75s5.76,21.75,15,21.75a17.67,17.67,0,0,0,10.58-3.75Z"/><path class="cls-1" d="M303.6,332.24c0,15.63-8.07,26-20.23,26s-20.31-10.37-20.31-26,8.06-26,20.31-26S303.6,316.69,303.6,332.24Zm-5.18,0c0-13.39-5.76-21.75-15-21.75s-15.12,8.35-15.12,21.75S274.08,354,283.37,354,298.42,345.64,298.42,332.24Z"/><path class="cls-1" d="M353.35,332.24c0,15.63-8.06,26-20.23,26s-20.31-10.37-20.31-26,8.06-26,20.31-26S353.35,316.69,353.35,332.24Zm-5.18,0c0-13.39-5.76-21.75-15-21.75S318,318.85,318,332.24,323.83,354,333.12,354,348.17,345.64,348.17,332.24Z"/><path class="cls-1" d="M365.81,307.4h11.81c11.88,0,18.65,5.47,18.65,15.26s-6.77,15.55-18.72,15.55h-6.77v18.94h-5Zm11.81,26.79c9,0,13.39-4,13.39-11.67,0-7.27-4.39-11.23-13-11.23h-7.27v22.9Z"/><path class="cls-1" d="M112.52,408.56c-3.31,2.59-9.43,4.68-15,4.68-13.18,0-20.38-9.14-20.38-26,0-15.55,8.35-26,20.88-26a21.72,21.72,0,0,1,13.1,4.39l-2.3,3.6a17.3,17.3,0,0,0-10.51-3.74c-9.79,0-16,8.35-16,21.75,0,14.4,5.18,21.75,15.27,21.75a20.5,20.5,0,0,0,10.15-2.66V389H98v-4h14.47Z"/><path class="cls-1" d="M150.17,362.4h25v4h-20v17.86h17.14v4H155.14v19.95h20.81v4H150.17Z"/><path class="cls-1" d="M213,362.4h7.56l14.62,45,14.4-45H257v49.76h-4.9V385.3c.22-5.69,0-12,.22-17.64h-.22L238,412.16h-5.76l-14.4-44.5h-.22c.22,5.69.14,12,.22,17.64v26.86H213Z"/><path class="cls-1" d="M307.63,362.4h5.76L330,412.16h-5.18l-4.32-13.46H300.36l-4.25,13.46h-5Zm11.59,32.26-8.71-27.94h-.07l-8.79,27.94Z"/><path class="cls-1" d="M376.46,388.18H369v24h-5V362.4h5v21.82h7.56l13.32-21.82h5.33L380.64,386l15.63,26.14h-5.76Z"/></g></g></svg>